<?xml version="1.0" encoding="utf-8"?>
<!-- Generator: Adobe Illustrator 15.1.0, SVG Export Plug-In . SVG Version: 6.00 Build 0)  -->
<!DOCTYPE svg PUBLIC "-//W3C//DTD SVG 1.0//EN" "http://www.w3.org/TR/2001/REC-SVG-20010904/DTD/svg10.dtd" [
	<!ENTITY ns_flows "http://ns.adobe.com/Flows/1.0/">
	<!ENTITY ns_extend "http://ns.adobe.com/Extensibility/1.0/">
	<!ENTITY ns_ai "http://ns.adobe.com/AdobeIllustrator/10.0/">
	<!ENTITY ns_graphs "http://ns.adobe.com/Graphs/1.0/">
]>
<svg version="1.0"
	 id="svg6245" xmlns:x="&ns_extend;" xmlns:i="&ns_ai;" xmlns:graph="&ns_graphs;" sodipodi:docname="chipcolour.svg" inkscape:export-ydpi="199.88" inkscape:export-xdpi="199.88" inkscape:version="0.48.0 r9654" inkscape:export-filename="D:\Hackerspace\chiplogoColourSmall.png" xmlns:inkscape="http://www.inkscape.org/namespaces/inkscape" xmlns:sodipodi="http://sodipodi.sourceforge.net/DTD/sodipodi-0.dtd" xmlns:cc="http://creativecommons.org/ns#" xmlns:rdf="http://www.w3.org/1999/02/22-rdf-syntax-ns#" xmlns:dc="http://purl.org/dc/elements/1.1/" xmlns:svg="http://www.w3.org/2000/svg"
	 xmlns="http://www.w3.org/2000/svg" xmlns:xlink="http://www.w3.org/1999/xlink" xmlns:a="http://ns.adobe.com/AdobeSVGViewerExtensions/3.0/"
	 x="0px" y="0px" width="236.575px" height="387.11px" viewBox="100.62 159.35 236.575 387.11"
	 enable-background="new 100.62 159.35 236.575 387.11" xml:space="preserve">
<sodipodi:namedview  inkscape:window-maximized="1" id="base" inkscape:zoom="2" inkscape:cx="108.41307" inkscape:cy="701.73708" showgrid="false" pagecolor="#ffffff" bordercolor="#666666" borderopacity="1.0" inkscape:document-units="mm" inkscape:pageopacity="0.0" inkscape:pageshadow="2" inkscape:current-layer="layer1" inkscape:snap-global="true" inkscape:window-width="1680" inkscape:window-height="998" inkscape:window-x="-8" inkscape:window-y="-8">
	</sodipodi:namedview>
<polygon points="154.103,473.658 154.057,484.281 131.888,473.329 131.63,461.491 109.477,450.924 106.353,463.195 111.271,475.977 
	179.649,509.527 181.053,501.418 177.811,484.458 "/>
<g>
	<path d="M308.492,348.878c0.152,0.164,0.313,0.353,0.472,0.531l0.188-0.237c-0.036-0.017-0.072-0.034-0.107-0.05L308.492,348.878z"
		/>
	<path d="M184.233,495.819l13.69-17.173l1.394,0.812c0.155,0.09,2.053,1.204,4.242,2.936l2.667-3.364
		c-0.305-0.114-0.611-0.227-0.917-0.333l-1.2-0.417l-0.292-6.935l13.729-16.978l1.366,0.741c0.146,0.079,1.983,1.091,4.092,2.753
		l2.471-3.117c-0.289-0.1-0.579-0.197-0.868-0.287l-1.302-0.407l-0.047-7.157l12.509-16.541l1.427,0.819
		c0.148,0.086,2.208,1.284,4.405,3.229l1.896-2.392c-0.368-0.18-0.743-0.358-1.116-0.527l-1.089-0.494l-0.037-6.367l12.84-16.552
		l1.416,0.832c0.132,0.078,1.943,1.157,3.913,3.015l1.798-2.269c-0.213-0.089-0.426-0.178-0.639-0.262l-1.188-0.474l0.069-7.014
		l12.764-15.742l1.4,0.873c0.132,0.082,1.667,1.053,3.471,2.588l0.785-0.991c-0.227-0.104-0.455-0.206-0.682-0.302l-1.127-0.48
		l-0.047-6.986l12.577-15.273l1.366,0.777c0.131,0.074,1.723,0.998,3.554,2.531l0.319-0.403l-1.435-0.714l0.028-7.013l12.207-15.311
		l1.46,1.165c0.08,0.063,0.854,0.689,1.871,1.722l-0.298-6.664l12.274-15.179l1.432,1.025c0.031,0.022,0.189,0.138,0.429,0.332
		l0.002-3.973l10.529-13.2l-1.973-9.655l-31.354,38.458c-1.107,3.572-2.604,6.98-4.501,10.319
		c-3.653,6.427-10.391,14.571-15.021,18.156c-2.096,1.623-4.878,3.425-7.912,5.175l-90.121,110.537l2.818,14.787L184.233,495.819z"
		/>
	<path d="M185.566,503.346l-0.567-0.203l0.241,2.362l1.396-1.762C186.274,503.606,185.913,503.47,185.566,503.346z"/>
</g>
<path id="rect3832" inkscape:connector-curvature="0" sodipodi:nodetypes="ccccc" fill="#FFFFFF" d="M182.985,497.121l5-5.813
	l-1.25,13.25l-2.875,2.438L182.985,497.121z"/>
<path d="M151.712,462.941c-0.533-1.204-1.515-2.046-3.002-2.571c-1.455-0.515-3.049-0.775-4.739-0.775
	c-3.469,0-6.563,1.074-8.229,1.784c-0.137,0.069-0.288,0.146-0.407,0.204l0.105,7.406c2.772-1.186,6.78-2.335,10.362-2.335
	c2.488,0,4.511,0.547,6.053,1.614C152.211,466.783,152.473,464.663,151.712,462.941z"/>
<path d="M150.347,478.281l0.035-8.191c-0.205-0.103-0.42-0.201-0.65-0.294c-1.323-0.531-2.718-0.801-4.147-0.801
	c-3.401,0-6.46,1.506-8.428,2.771L150.347,478.281z"/>
<path fill="#808080" d="M102.439,463.425l2.589-10.164c-1.544,1.6-2.984,3.289-3.583,4.537c-1.026,2.136-0.924,9.001-0.599,13.353
	l2.028,1.659l-0.059,18.518c0.291,0.997,0.77,2.057,1.137,2.546c0.395-0.366,0.955-1.153,1.375-1.944l0.401-19.958L102.439,463.425z
	"/>
<path d="M261.421,378.313c-0.575,0.255-1.141,0.497-1.698,0.729c-0.069,0.029-0.139,0.059-0.208,0.087
	c-0.54,0.223-1.067,0.432-1.584,0.63c-0.079,0.03-0.157,0.06-0.235,0.09c-0.507,0.191-1,0.369-1.479,0.533
	c-0.077,0.026-0.152,0.052-0.229,0.078c-0.474,0.16-0.932,0.305-1.372,0.433c-0.068,0.02-0.134,0.039-0.2,0.058
	c-0.44,0.125-0.863,0.236-1.262,0.327c-0.051,0.012-0.099,0.021-0.149,0.032c-0.404,0.089-0.789,0.161-1.144,0.21
	c-0.029,0.004-0.054,0.005-0.083,0.009c-0.367,0.047-0.71,0.076-1.017,0.076c-0.168,0-0.318-0.027-0.477-0.04l0.004,0.022
	l-3.534,0.085c-6.985,0.17-17.12,0.255-30.121,0.255c-0.002,0-0.002,0-0.003,0c-10.294,0-20.224-0.052-27.725-0.098l-4.411-0.027
	l0.015-0.036c-0.223,0.019-0.444,0.039-0.689,0.039c-0.324,0-0.665-0.02-1.017-0.054c-0.11-0.011-0.229-0.031-0.341-0.045
	c-0.25-0.03-0.502-0.063-0.765-0.108c-0.132-0.023-0.27-0.054-0.405-0.081c-0.257-0.05-0.515-0.103-0.782-0.166
	c-0.137-0.032-0.277-0.07-0.416-0.105c-0.278-0.071-0.559-0.145-0.846-0.228c-0.131-0.038-0.265-0.079-0.398-0.119
	c-0.308-0.093-0.619-0.19-0.936-0.295c-0.116-0.039-0.233-0.079-0.35-0.119c-0.348-0.119-0.698-0.244-1.053-0.375
	c-0.09-0.034-0.18-0.066-0.271-0.101c-0.396-0.149-0.795-0.305-1.199-0.467c-0.053-0.021-0.106-0.042-0.159-0.064
	c-0.458-0.186-0.92-0.379-1.383-0.58h0l-62.84,68.368l22.863,11.011c1.731-0.807,5.772-2.418,10.448-2.418
	c2.114,0,4.127,0.333,5.983,0.988c2.483,0.878,4.227,2.426,5.182,4.602c1.307,2.977,0.726,6.39,0.167,8.396l23.632,11.011
	l84.451-103.441c-0.001,0-0.001,0.001-0.002,0.001c-0.615,0.289-1.225,0.567-1.827,0.835
	C261.511,378.272,261.466,378.293,261.421,378.313z"/>
<path d="M295.383,289.375c0.257,0.88,0.507,1.749,0.747,2.607c0.077,0.273,0.154,0.547,0.229,0.818
	c0.251,0.908,0.492,1.805,0.725,2.689c0.042,0.163,0.088,0.33,0.13,0.492c0.28,1.079,0.547,2.142,0.798,3.186
	c0.003,0.012,0.005,0.023,0.008,0.035c0.239,0.991,0.461,1.964,0.673,2.925c0.049,0.221,0.095,0.439,0.143,0.659
	c0.167,0.771,0.326,1.532,0.476,2.284c0.046,0.23,0.093,0.461,0.137,0.69c0.158,0.813,0.306,1.615,0.443,2.406
	c0.022,0.125,0.046,0.252,0.067,0.376c0.318,1.86,0.579,3.661,0.786,5.411c0.021,0.185,0.041,0.366,0.062,0.549
	c0.078,0.689,0.146,1.372,0.207,2.045c0.018,0.191,0.035,0.383,0.051,0.574c0.061,0.736,0.111,1.463,0.151,2.18
	c0.005,0.091,0.012,0.184,0.017,0.275c0.086,1.648,0.114,3.248,0.089,4.808c-0.003,0.156-0.008,0.311-0.011,0.466
	c-0.015,0.621-0.038,1.235-0.07,1.843c-0.009,0.165-0.018,0.329-0.027,0.493c-0.041,0.667-0.092,1.326-0.154,1.978
	c-0.007,0.072-0.012,0.144-0.019,0.215c-0.076,0.758-0.165,1.506-0.27,2.246l27.659-33.878l-34.289-12.503
	c0.356,1.151,0.696,2.28,1.026,3.395C295.241,288.885,295.311,289.129,295.383,289.375z"/>
<path fill="#F14400" d="M289.285,346.828c8.655-15.229,8.163-31.706-1.882-62.962c-7.061-21.968-7.683-26.104-6.656-44.257
	c0.38-6.689,0.457-11.8,0.386-14.92c-1.536,0.853-3.583,2.056-6.028,3.606c-8.165,5.177-17.416,18.894-17.772,24.646
	c-0.42,6.781-4.636,7.308-5.918,7.308c-7.89,0-19.141-16.75-25.72-32.511c-9.319-22.325-9.572-38.037-1.081-67.248
	c0.119-0.408,0.216-0.789,0.294-1.139c-4.357,2.039-12.492,7.551-17.21,13.003c-15.222,17.586-21.116,42.182-16.171,67.48
	c2.366,12.112,2.629,30.882-0.562,37.872c-1.828,4.005-4.059,4.847-5.609,4.847c0,0-0.001,0-0.001,0
	c-1.173,0-2.284-0.495-3.13-1.394c-1.823-1.939-2.021-5.338-1.866-7.848c0.617-9.963-4.125-24.875-10.147-31.911
	c-3.109-3.632-4.781-5.204-5.676-5.867c-0.882,2.705-1.26,10.104-1.395,12.741c-0.751,14.726-1.875,18.761-7.514,26.983
	c-13.022,18.987-18.274,30.176-20.072,42.756c-3.08,21.55,6.611,37.258,31.422,50.932c9.074,5,13.657,6.371,15.703,6.727
	c-0.934-1.782-2.57-4.054-3.745-5.158c-6.69-6.29-6.396-18.342,0.874-35.822c3.599-8.653,6.274-17.382,6.423-19.805
	c0.473-7.631,4.824-8.225,6.147-8.225c3.635,0,7.07,3.646,9.189,9.755c0.875,2.521,1.825,4.395,2.447,5.386
	c4.247-2.326,14.553-19.305,15.346-31.12c0.244-3.646,0.751-11.231,5.895-11.231c2.771,0,5.219,2.443,8.453,8.431
	c3.846,7.122,3.864,12.289,2.286,29.592c-0.345,3.783-0.574,6.854-0.714,9.345c1.604-4.193,4.253-7.746,7.627-7.746
	c0.936,0,1.842,0.291,2.62,0.841c2.261,1.598,3.095,5.487,2.914,8.424c-0.091,1.477,1.361,6.812,3.846,11.807
	c6.829,13.733,7.508,21.213,2.795,30.785c-0.776,1.576-1.353,2.976-1.754,4.098c5.389-1.709,16.268-7.02,22.48-11.828
	C279.845,360.076,286.016,352.578,289.285,346.828z"/>
<g>
	<path fill="#FFB629" d="M243.995,318.215l-0.596,0.896c0.265,0.029,0.525,0.077,0.78,0.153L243.995,318.215z"/>
	<polygon fill="#FFB629" points="224.337,279.539 224.337,279.541 224.338,279.541 	"/>
	<path fill="#FFB629" d="M247.494,380.292c-0.715-0.809-2.392-2.705,2.196-12.019c3.81-7.736,3.185-13.445-2.785-25.45
		c-2.321-4.666-4.674-11.458-4.464-14.856c0.042-0.673-0.012-1.297-0.104-1.822c-1.118,1.683-2.512,4.949-2.739,8.608
		c-0.401,6.5-3.447,7.471-5.227,7.471c-0.617,0-1.239-0.129-1.849-0.383c-3.706-1.546-4.199-6.435-2.515-24.912
		c1.658-18.174,1.213-21.001-1.589-26.189c-1.089-2.018-1.918-3.289-2.515-4.087c-0.196,0.927-0.402,2.33-0.543,4.432
		c-0.842,12.542-13.075,36.991-22.105,36.991c-0.115,0-0.23-0.003-0.343-0.01c-0.927-0.058-3.748-0.232-7.025-9.678
		c-1.171-3.375-2.519-4.921-3.215-5.475c-0.162,0.399-0.364,1.124-0.439,2.345c-0.237,3.836-3.681,14.067-6.874,21.743
		c-6.035,14.511-6.854,24.857-2.307,29.132c1.863,1.751,4.232,5.108,5.392,7.642c1.058,2.308,1.089,4.265,0.093,5.816
		c-0.59,0.919-1.769,1.988-4.029,2.175l-0.015,0.036l4.411,0.027c7.501,0.046,17.431,0.098,27.725,0.098c0.001,0,0.001,0,0.003,0
		c13.001,0,23.136-0.085,30.121-0.255l3.534-0.085l-0.004-0.022C249.116,381.47,248.17,381.058,247.494,380.292z"/>
</g>
<path fill="#808080" d="M206.249,490.784c-1.527-2.997-5.388-5.855-7.456-7.236l-10.803,13.551l0.052,3.18
	c2.104,0.799,4.796,1.949,5.667,2.89c0.407,0.439,1.243,1.343,3.876,17.448l3.655,1.026l2.656,23.321
	c0.723,0.713,1.576,1.346,2.031,1.497c0.4-0.418,0.999-1.681,1.361-2.881l-0.169-2.538c-0.539-8.136-1.096-16.549-2.315-24.728
	l-0.07-0.47l2.721-7.448C207.722,504.404,207.986,494.191,206.249,490.784z"/>
<path fill="#808080" d="M225.185,465.795c-1.4-2.746-4.642-5.253-6.732-6.608l-10.844,13.409l0.126,3.005
	c1.801,0.679,4.057,1.658,4.909,2.578c0.407,0.439,1.243,1.343,3.876,17.448l3.656,1.026l2.656,23.321
	c0.722,0.712,1.575,1.345,2.03,1.497c0.4-0.42,1.006-1.699,1.362-2.88l-0.166-2.489c-0.54-8.152-1.097-16.582-2.319-24.777
	l-0.07-0.47l2.721-7.45C226.657,479.415,226.922,469.203,225.185,465.795z"/>
<path fill="#808080" d="M242.696,441.582c-1.316-2.735-4.248-5.067-5.989-6.279l-9.705,12.832l0.021,3.188
	c1.653,0.583,3.651,1.43,4.444,2.337c0.375,0.427,1.147,1.309,3.565,16.962l3.361,1l2.445,22.731
	c0.572,0.594,1.24,1.138,1.655,1.347c0.361-0.482,0.856-1.625,1.163-2.7l-0.155-2.457c-0.496-7.93-1.008-16.129-2.131-24.1
	l-0.063-0.445l2.499-7.246C244.052,454.866,244.297,444.906,242.696,441.582z"/>
<path fill="#808080" d="M260.151,419.021c-1.212-2.712-3.655-4.841-5.187-5.982l-9.967,12.85l0.016,2.698
	c1.741,0.836,3.938,2.013,4.691,2.94c0.353,0.435,1.078,1.327,3.373,17.344l3.191,1.022l2.322,23.259
	c0.479,0.539,1.037,1.045,1.425,1.296c0.344-0.551,0.787-1.675,1.06-2.722l-0.147-2.531c-0.471-8.122-0.958-16.521-2.025-24.689
	l-0.054-0.414l2.369-7.399C261.451,432.719,261.686,422.457,260.151,419.021z"/>
<path fill="#808080" d="M279.146,397.894c-1.079-2.631-4.114-5.274-6.143-6.768l-9.819,12.109l-0.031,3.17
	c1.948,0.835,4.01,1.883,4.735,2.823c0.341,0.442,1.041,1.349,2.585,16.841l3.182,1.146l1.22,22.482
	c0.483,0.567,1.049,1.098,1.429,1.341c0.368-0.483,0.875-1.542,1.206-2.54l-0.026-2.44c-0.083-7.815-0.167-15.896-0.85-23.785
	l-0.038-0.438l2.763-7.001C279.789,411.025,280.52,401.24,279.146,397.894z"/>
<path fill="#808080" d="M295.138,376.681c-1.058-2.576-3.829-4.922-5.704-6.233l-9.664,11.736l0.021,3.202
	c1.517,0.705,3.372,1.701,4.088,2.628c0.341,0.442,1.041,1.349,2.585,16.842l3.182,1.146l1.22,22.48
	c0.483,0.567,1.049,1.098,1.43,1.341c0.368-0.483,0.875-1.541,1.206-2.538l-0.026-2.444c-0.083-7.814-0.167-15.895-0.849-23.782
	l-0.038-0.438l2.762-7.001C295.781,389.814,296.511,380.028,295.138,376.681z"/>
<path fill="#808080" d="M309.383,357.062c-0.863-2.599-2.864-4.91-4.228-6.265l-8.99,11.277l-0.014,3.422
	c1.401,0.793,3.312,2.008,3.99,3.077c0.279,0.44,0.852,1.344,1.939,16.968l2.705,1.195l0.706,22.676
	c0.27,0.387,0.576,0.766,0.842,1.043c0.3-0.568,0.652-1.449,0.896-2.272l0.015-2.5c0.048-7.885,0.097-16.039-0.368-24.009
	l-0.022-0.375l2.464-6.994C309.744,370.476,310.529,360.513,309.383,357.062z"/>
<path fill="#808080" d="M323.99,337.108c-0.806-2.425-2.345-4.283-3.46-5.391l-9.06,11.203l0.148,3.297
	c1.249,0.643,2.545,1.481,3.13,2.402c0.279,0.439,0.853,1.343,1.939,16.968l2.705,1.195l0.706,22.676
	c0.27,0.387,0.577,0.767,0.843,1.044c0.299-0.564,0.647-1.438,0.895-2.274l0.015-2.438c0.048-7.905,0.098-16.08-0.368-24.071
	l-0.022-0.375l2.464-6.994C324.351,350.522,325.135,340.559,323.99,337.108z"/>
<path fill="#808080" d="M336.65,319.755c-0.675-2.19-1.868-3.898-2.797-4.984l-8.307,10.414l-0.002,3.206
	c1.056,0.696,2.494,1.76,3.054,2.711c0.253,0.43,0.771,1.311,1.758,16.618l2.46,1.171l0.641,22.245
	c0.173,0.267,0.363,0.533,0.545,0.761c0.244-0.55,0.507-1.287,0.695-1.977l0.013-2.456c0.044-7.736,0.089-15.735-0.335-23.557
	l-0.019-0.349l2.237-6.85C336.981,332.957,337.697,323.156,336.65,319.755z"/>
</svg>
