<?xml version="1.0" encoding="utf-8"?>
<!-- Generator: Adobe Illustrator 15.1.0, SVG Export Plug-In . SVG Version: 6.00 Build 0)  -->
<svg version="1.2" baseProfile="tiny" xmlns="http://www.w3.org/2000/svg" xmlns:xlink="http://www.w3.org/1999/xlink" x="0px"
	 y="0px" width="141.73px" height="283.465px" viewBox="0 0 141.73 283.465" xml:space="preserve">
<g id="board">
	<path fill="#ED1C24" d="M138.085,107.017l-23.306-8.497c-1.965-6.576-1.941-8.5-1.562-15.226c0.254-4.464,0.247-7.335,0.22-8.649
		l-0.315-15.341l-13.427,7.428c-0.94,0.52-2.189,1.253-3.685,2.201c-3.29,2.088-6.972,5.949-9.694,10.134
		c-1.023-1.746-2.087-3.824-3.069-6.175c-4.088-9.795-4.137-16.159-0.211-29.661c0.106-0.379,0.196-0.733,0.271-1.056l4.26-18.511
		l-17.207,8.044c-3.528,1.65-8.863,5.354-12.23,9.242c-7.391,8.539-11.443,19.504-11.75,31.233l-9.001-6.688L33.38,77.722
		c-0.621,1.901-0.942,4.385-1.188,9.181c-0.337,6.597-0.609,6.995-2.383,9.582c-7.729,11.268-11.037,18.494-12.204,26.66
		c-1.982,13.88,3.528,24.937,16.767,33.683L0,196.726v21.173l8.753,13.833l58.041,24.89l71.113-101.326L138.085,107.017z"/>
</g>
<g id="silkscreen">
	<g>
		<polygon fill="#FFFFFF" points="36.636,207.483 36.612,213.135 24.824,207.312 24.687,201.014 12.909,195.396 11.248,201.922 
			13.863,208.718 50.218,226.554 50.965,222.247 49.24,213.227 		"/>
		<g>
			<path fill="#FFFFFF" d="M118.723,141.139c0.081,0.087,0.166,0.189,0.251,0.283l0.098-0.125c-0.017-0.009-0.038-0.019-0.055-0.025
				L118.723,141.139L118.723,141.139z"/>
			<path fill="#FFFFFF" d="M130.075,116.829l0.792,3.871l-5.452,6.835l-0.109,0.137v0.175l-0.001,1.128l-0.198-0.143l-0.384-0.275
				l-0.297,0.367l-6.525,8.072l-0.119,0.147l0.008,0.189l0.104,2.319c-0.042-0.036-0.085-0.072-0.129-0.108l-0.776-0.617
				l-0.391-0.31l-0.311,0.39l-6.491,8.138l-0.108,0.136l-0.001,0.174l-0.01,2.893c-0.305-0.202-0.51-0.32-0.554-0.346l-0.728-0.414
				l-0.365-0.208l-0.268,0.325l-6.688,8.12l-0.115,0.14l0.001,0.181l0.021,3.211c-0.329-0.231-0.532-0.355-0.532-0.355l0,0
				l-0.745-0.466l-0.375-0.234l-0.278,0.344l-6.785,8.372l-0.109,0.135l-0.002,0.175l-0.036,3.729l-0.003,0.342l0.317,0.127
				l0.35,0.141l-0.209,0.264c-0.863-0.751-1.604-1.209-1.768-1.306l-0.753-0.442l-0.379-0.223l-0.27,0.347l-6.827,8.802
				l-0.105,0.137l0.001,0.173l0.02,3.386l0.002,0.321l0.292,0.132l0.576,0.26c0.006,0.003,0.012,0.005,0.019,0.008l-0.295,0.372
				c-1.095-0.906-2.017-1.428-2.021-1.431l-0.761-0.437l-0.382-0.22l-0.266,0.352l-6.649,8.795l-0.103,0.136l0.001,0.169
				l0.025,3.806l0.003,0.365l0.348,0.109l0.464,0.146l-0.562,0.707c-1.027-0.765-1.848-1.205-1.852-1.206l-0.727-0.394l-0.365-0.198
				l-0.261,0.323l-7.298,9.024l-0.119,0.146l0.008,0.188l0.154,3.687l0.014,0.339l0.32,0.112l0.466,0.163l-0.679,0.858
				c-0.869-0.656-1.604-1.11-1.919-1.298l-0.741-0.432l-0.373-0.218l-0.27,0.338l-6.797,8.528l-1.031-5.411l47.709-58.52
				c1.64-0.947,3.086-1.896,4.187-2.744c2.502-1.935,6.143-6.332,8.115-9.803c1.027-1.807,1.814-3.604,2.405-5.492L130.075,116.829
				 M130.354,115.696l-16.672,20.447c-0.587,1.901-1.382,3.711-2.391,5.485c-1.944,3.42-5.525,7.751-7.986,9.654
				c-1.117,0.861-2.596,1.823-4.21,2.753L51.18,212.806l1.499,7.863l-0.022-1.401l7.278-9.132l0.741,0.432
				c0.083,0.05,1.091,0.643,2.256,1.563l1.417-1.791c-0.163-0.062-0.324-0.119-0.487-0.176l-0.638-0.224l-0.154-3.687l7.298-9.024
				l0.727,0.394c0.077,0.04,1.055,0.578,2.175,1.463l1.314-1.656c-0.153-0.056-0.309-0.106-0.462-0.153l-0.691-0.217l-0.025-3.806
				l6.649-8.795l0.761,0.437c0.079,0.044,1.175,0.683,2.34,1.714l1.009-1.271c-0.196-0.094-0.394-0.188-0.592-0.279l-0.58-0.262
				l-0.02-3.386l6.827-8.802l0.753,0.442c0.068,0.041,1.034,0.617,2.081,1.604l0.954-1.206c-0.112-0.047-0.225-0.096-0.338-0.139
				l-0.632-0.253l0.036-3.729l6.785-8.372l0.745,0.466c0.072,0.043,0.887,0.56,1.846,1.376l0.417-0.527
				c-0.119-0.056-0.242-0.108-0.361-0.159l-0.601-0.256l-0.025-3.716l6.688-8.12l0.728,0.414c0.068,0.039,0.914,0.528,1.889,1.347
				l0.17-0.215l-0.761-0.381l0.013-3.73l6.491-8.138l0.776,0.617c0.04,0.034,0.453,0.37,0.993,0.917l-0.157-3.541l6.525-8.072
				l0.762,0.547c0.017,0.011,0.102,0.07,0.228,0.174l0.002-2.112l5.599-7.019L130.354,115.696L130.354,115.696z"/>
		</g>
		<path fill="#FFFFFF" d="M35.365,201.787c-0.284-0.642-0.806-1.089-1.597-1.367c-0.774-0.272-1.622-0.412-2.52-0.412
			c-1.845,0-3.489,0.569-4.375,0.948c-0.073,0.036-0.153,0.078-0.216,0.108l0.055,3.939c1.474-0.632,3.605-1.242,5.509-1.242
			c1.323,0,2.398,0.291,3.218,0.859C35.63,203.829,35.77,202.7,35.365,201.787z"/>
		<path fill="#FFFFFF" d="M34.638,209.942l0.019-4.356c-0.108-0.053-0.223-0.104-0.346-0.155c-0.703-0.28-1.444-0.425-2.205-0.425
			c-1.809,0-3.434,0.8-4.481,1.474L34.638,209.942z"/>
		<path fill="#FFFFFF" d="M9.167,202.043l1.376-5.402c-0.82,0.851-1.586,1.748-1.906,2.412c-0.544,1.133-0.49,4.787-0.318,7.1
			l1.078,0.883l-0.031,9.844c0.154,0.533,0.41,1.095,0.605,1.354c0.21-0.195,0.506-0.612,0.729-1.034l0.213-10.611L9.167,202.043z"
			/>
		<path fill="#FFFFFF" d="M93.025,157.621l-43.328,53.074l-11.836-5.516c0.292-1.237,0.438-2.887-0.218-4.389
			c-0.566-1.288-1.591-2.201-3.046-2.714c-1.038-0.369-2.165-0.557-3.349-0.557c-2.371,0-4.421,0.732-5.549,1.235l-11.337-5.462
			l32.716-35.592c0.138,0.058,0.271,0.112,0.39,0.158c0.026,0.013,0.053,0.024,0.112,0.048c0.219,0.088,0.434,0.173,0.667,0.26
			l0.055,0.021l0.072,0.026c0.194,0.072,0.386,0.143,0.584,0.208l0.072,0.024l0.102,0.033c0.14,0.048,0.277,0.092,0.414,0.135
			l0.119,0.036l0.101,0.029l0.099,0.029c0.111,0.032,0.219,0.06,0.328,0.088l0.14,0.036l0.118,0.03l0.107,0.027
			c0.148,0.035,0.292,0.065,0.445,0.096l0.106,0.021l0.114,0.022c0.147,0.024,0.287,0.043,0.432,0.062l0.055,0.008
			c0.051,0.007,0.102,0.015,0.132,0.016c0.062,0.007,0.124,0.013,0.185,0.017l-0.004,0.01l0.177,0.001
			c0.08,0.004,0.159,0.006,0.236,0.006c0.047,0,0.094-0.001,0.139-0.003l0.216,0.001l2.345,0.015
			c4.024,0.023,9.336,0.051,14.745,0.051c6.975,0,12.368-0.046,16.027-0.138l1.88-0.045l0.045-0.002
			c0.062,0.007,0.125,0.013,0.194,0.013c0.175,0,0.365-0.015,0.584-0.044l0.035-0.001l0.033-0.005
			c0.199-0.026,0.419-0.067,0.647-0.117l0.054-0.01l0.028-0.01c0.218-0.049,0.452-0.11,0.695-0.179l0.097-0.028l0.016-0.006
			c0.24-0.07,0.493-0.148,0.776-0.245c0.042-0.013,0.084-0.026,0.095-0.031c0.26-0.089,0.529-0.185,0.803-0.288l0.044-0.018
			l0.007-0.004l0.068-0.028c0.22-0.081,0.442-0.17,0.668-0.261l0.188-0.075l0.054-0.023l0.017-0.008l0.043-0.02
			C92.996,157.633,93.011,157.627,93.025,157.621 M94.739,156.313c-0.328,0.155-0.651,0.305-0.97,0.444
			c-0.026,0.011-0.049,0.023-0.072,0.034c-0.307,0.137-0.608,0.264-0.906,0.386c-0.034,0.017-0.072,0.031-0.108,0.049
			c-0.287,0.114-0.568,0.229-0.845,0.331c-0.04,0.018-0.081,0.034-0.123,0.052c-0.269,0.102-0.532,0.195-0.787,0.282
			c-0.038,0.016-0.081,0.026-0.119,0.039c-0.253,0.087-0.498,0.163-0.731,0.231c-0.036,0.011-0.07,0.02-0.106,0.032
			c-0.234,0.065-0.46,0.125-0.67,0.172c-0.028,0.007-0.054,0.011-0.079,0.02c-0.215,0.047-0.421,0.085-0.608,0.11
			c-0.017,0.002-0.029,0.002-0.043,0.002c-0.195,0.027-0.378,0.043-0.542,0.043c-0.092,0-0.168-0.016-0.253-0.021l0.002,0.011
			l-1.88,0.045c-3.712,0.093-9.102,0.138-16.015,0.138h-0.001c-5.473,0-10.753-0.027-14.741-0.051l-2.345-0.015l0.009-0.02
			c-0.121,0.011-0.237,0.021-0.367,0.021c-0.172,0-0.354-0.011-0.541-0.03c-0.059-0.004-0.122-0.017-0.181-0.023
			c-0.134-0.017-0.267-0.034-0.407-0.058c-0.069-0.013-0.144-0.029-0.215-0.042c-0.136-0.027-0.273-0.056-0.416-0.09
			c-0.074-0.019-0.147-0.038-0.222-0.057c-0.148-0.039-0.297-0.075-0.45-0.119c-0.07-0.02-0.141-0.043-0.211-0.062
			c-0.164-0.052-0.33-0.103-0.498-0.16c-0.062-0.019-0.123-0.042-0.185-0.062c-0.185-0.062-0.371-0.13-0.56-0.2
			c-0.049-0.017-0.095-0.036-0.145-0.053c-0.21-0.079-0.422-0.162-0.637-0.249c-0.028-0.013-0.057-0.021-0.083-0.034
			c-0.246-0.098-0.491-0.202-0.737-0.306l-33.411,36.348l12.155,5.855c0.92-0.43,3.068-1.287,5.555-1.287
			c1.125,0,2.195,0.177,3.181,0.527c1.321,0.466,2.248,1.289,2.755,2.444c0.694,1.587,0.386,3.398,0.088,4.465l12.565,5.855
			L94.739,156.313L94.739,156.313z"/>
		<path fill="#FFFFFF" d="M111.863,108.12l16.629,6.063l-13.19,16.155c0.019-0.23,0.034-0.462,0.048-0.692
			c0.008-0.091,0.014-0.182,0.019-0.275c0.018-0.328,0.028-0.659,0.037-0.994l0.001-0.086l0.005-0.165
			c0.013-0.821-0.004-1.691-0.049-2.606l-0.01-0.127c-0.017-0.351-0.043-0.705-0.07-1.062l-0.009-0.116l-0.013-0.138
			c-0.006-0.054-0.011-0.107-0.016-0.169c-0.031-0.361-0.07-0.729-0.116-1.142l-0.027-0.253c-0.111-0.936-0.254-1.912-0.422-2.891
			c-0.011-0.075-0.025-0.153-0.037-0.211c-0.073-0.425-0.152-0.856-0.241-1.311l-0.069-0.348c-0.079-0.403-0.165-0.813-0.256-1.224
			l-0.043-0.205l-0.031-0.146c-0.11-0.5-0.227-1.009-0.352-1.523v-0.003l-0.014-0.058c-0.135-0.558-0.276-1.127-0.429-1.714
			l-0.055-0.202l-0.014-0.048c-0.123-0.473-0.252-0.952-0.386-1.436l-0.069-0.249l-0.053-0.189
			c-0.129-0.458-0.261-0.923-0.396-1.382c-0.037-0.135-0.076-0.268-0.117-0.406l-0.165-0.548
			C111.924,108.319,111.894,108.22,111.863,108.12 M111.094,107.307c0.188,0.61,0.367,1.212,0.546,1.804
			c0.039,0.132,0.077,0.262,0.113,0.394c0.138,0.466,0.27,0.929,0.397,1.385c0.04,0.145,0.081,0.291,0.121,0.436
			c0.134,0.482,0.262,0.959,0.385,1.429c0.023,0.087,0.047,0.176,0.07,0.259c0.149,0.574,0.29,1.14,0.424,1.695
			c0.002,0.006,0.004,0.013,0.004,0.019c0.128,0.525,0.247,1.044,0.359,1.555c0.025,0.119,0.049,0.234,0.074,0.351
			c0.09,0.409,0.175,0.815,0.254,1.215c0.025,0.123,0.049,0.245,0.072,0.366c0.085,0.432,0.163,0.859,0.235,1.28
			c0.014,0.066,0.026,0.134,0.036,0.2c0.169,0.989,0.309,1.946,0.42,2.877c0.01,0.098,0.021,0.194,0.031,0.292
			c0.041,0.366,0.079,0.729,0.11,1.087c0.007,0.1,0.02,0.202,0.028,0.306c0.029,0.39,0.06,0.776,0.078,1.16
			c0.003,0.049,0.007,0.098,0.011,0.145c0.043,0.876,0.06,1.727,0.047,2.557c-0.004,0.083-0.004,0.166-0.006,0.247
			c-0.009,0.33-0.02,0.657-0.036,0.98c-0.005,0.087-0.011,0.174-0.018,0.262c-0.021,0.355-0.047,0.706-0.081,1.051
			c-0.004,0.041-0.006,0.077-0.01,0.117c-0.041,0.402-0.088,0.8-0.143,1.191l14.706-18.011L111.094,107.307L111.094,107.307z"/>
		<path fill="#FFFFFF" d="M73.503,41.335c-4.406,15.341-4.218,23.721,0.737,35.59c3.649,8.741,9.677,17.591,14.135,17.591
			c0.563,0,3.388-0.21,3.647-4.355c0.176-2.884,5.061-10.075,9.216-12.71c1.005-0.637,1.826-1.128,2.451-1.489
			c0.009,1.917-0.067,4.428-0.216,7.054c-0.552,9.731-0.219,11.947,3.561,23.712c5.292,16.462,5.565,25.118,1.043,33.077
			c-1.711,3.01-4.934,6.929-7.038,8.558c-2.959,2.294-7.844,4.733-10.778,5.848c0.158-0.37,0.332-0.747,0.516-1.12
			c2.588-5.26,2.226-9.345-1.49-16.813c-1.361-2.737-2.03-5.417-1.992-6.025c0.109-1.752-0.392-3.951-1.759-4.916
			c-0.499-0.354-1.081-0.541-1.682-0.541c-1.249,0-2.427,0.783-3.392,2.21c0.061-0.768,0.131-1.603,0.214-2.513
			c0.849-9.322,0.834-12.113-1.274-16.016c-1.819-3.371-3.248-4.746-4.935-4.746c-3.206,0-3.493,4.349-3.632,6.438
			c-0.397,5.909-5.302,14.001-7.501,15.856c-0.248-0.462-0.616-1.23-0.989-2.306c-1.199-3.458-3.201-5.522-5.357-5.522
			c-0.813,0-3.489,0.349-3.768,4.843c-0.067,1.099-1.384,5.576-3.377,10.369c-3.954,9.504-4.07,16.099-0.347,19.601
			c0.377,0.355,0.862,0.966,1.287,1.604c-1.324-0.408-3.54-1.3-7.06-3.239c-12.983-7.154-18.058-15.35-16.455-26.572
			c0.943-6.604,3.715-12.496,10.591-22.52c3.066-4.472,3.676-6.656,4.083-14.606c0.056-1.112,0.21-4.164,0.535-5.89
			c0.498,0.469,1.241,1.247,2.344,2.536c3.133,3.657,5.598,11.419,5.276,16.611c-0.088,1.433,0.036,3.385,1.129,4.547
			c0.546,0.578,1.266,0.896,2.028,0.896c0.971,0,2.355-0.498,3.437-2.868c1.735-3.8,1.607-13.926,0.334-20.441
			c-2.599-13.299,0.494-26.222,8.485-35.455C67.722,45.056,71.228,42.596,73.503,41.335 M74.282,40.371
			c-2.317,1.083-6.642,4.016-9.151,6.913c-8.093,9.35-11.227,22.427-8.598,35.878c1.258,6.44,1.398,16.42-0.299,20.138
			c-0.971,2.129-2.157,2.576-2.982,2.576c-0.001,0-0.001,0-0.001,0c-0.624,0-1.214-0.264-1.664-0.74
			c-0.97-1.032-1.075-2.84-0.993-4.173c0.329-5.298-2.192-13.228-5.395-16.967c-1.653-1.932-2.542-2.768-3.017-3.121
			c-0.47,1.438-0.67,5.375-0.741,6.774c-0.4,7.83-0.998,9.976-3.996,14.349c-6.923,10.093-9.717,16.042-10.673,22.731
			c-1.637,11.458,3.516,19.811,16.708,27.08c4.824,2.659,7.262,3.389,8.35,3.578c-0.498-0.949-1.368-2.155-1.993-2.744
			c-3.555-3.344-3.4-9.752,0.466-19.045c1.913-4.601,3.336-9.242,3.415-10.531c0.252-4.058,2.565-4.373,3.269-4.373
			c1.932,0,3.759,1.938,4.885,5.186c0.466,1.342,0.97,2.338,1.302,2.865c2.257-1.236,7.738-10.265,8.16-16.546
			c0.128-1.939,0.397-5.972,3.133-5.972c1.474,0,2.775,1.297,4.494,4.483c2.046,3.786,2.055,6.532,1.217,15.733
			c-0.183,2.012-0.307,3.646-0.381,4.969c0.854-2.231,2.264-4.12,4.057-4.12c0.497,0,0.979,0.155,1.393,0.449
			c1.202,0.849,1.646,2.916,1.549,4.477c-0.049,0.787,0.723,3.623,2.044,6.279c3.633,7.302,3.994,11.277,1.489,16.369
			c-0.413,0.836-0.72,1.58-0.935,2.176c2.865-0.908,8.65-3.729,11.952-6.287c2.146-1.661,5.428-5.647,7.166-8.706
			c4.601-8.097,4.341-16.858-1.002-33.477c-3.752-11.681-4.084-13.878-3.537-23.531c0.201-3.556,0.24-6.274,0.206-7.934
			c-0.819,0.453-1.906,1.093-3.208,1.918c-4.339,2.752-9.261,10.046-9.447,13.103c-0.226,3.605-2.468,3.886-3.148,3.886
			c-4.194,0-10.176-8.906-13.674-17.284c-4.956-11.873-5.09-20.226-0.574-35.757C74.188,40.758,74.239,40.556,74.282,40.371
			L74.282,40.371z"/>
		<g>
			<path fill="#FFFFFF" d="M84.432,124.838l-0.316,0.474c0.138,0.017,0.278,0.045,0.414,0.083L84.432,124.838L84.432,124.838z"/>
			<path fill="#FFFFFF" d="M75.11,109.413c0.192,0.318,0.392,0.669,0.599,1.054c1.432,2.652,1.656,4.12,0.784,13.641
				c-0.872,9.6-0.759,12.75,1.647,13.755c0.389,0.16,0.784,0.242,1.174,0.242c0.903,0,3.029-0.433,3.276-4.442
				c0.06-0.963,0.279-1.872,0.556-2.642c0.236,2.009,1.294,4.932,2.384,7.125c3.088,6.21,3.419,9.146,1.479,13.089
				c-2.193,4.451-1.863,5.988-1.177,6.842c-3.651,0.09-9.017,0.136-15.952,0.136c-5.407,0-10.716-0.027-14.738-0.051l-0.108-0.001
				c0.135-0.142,0.244-0.286,0.332-0.422c0.627-0.978,0.622-2.178-0.017-3.567c-0.64-1.397-1.948-3.252-2.978-4.221
				c-2.223-2.091-1.732-7.533,1.346-14.932c1.689-4.066,3.557-9.556,3.69-11.72c0.004-0.073,0.01-0.142,0.016-0.207
				c0.285,0.418,0.627,1.055,0.956,2.001c1.66,4.786,3.179,5.42,4.171,5.48c0.071,0.005,0.146,0.008,0.219,0.008
				c5.122,0,11.78-13.135,12.254-20.136C75.047,110.075,75.076,109.73,75.11,109.413 M74.812,108.056
				c-0.104,0.494-0.215,1.24-0.287,2.357c-0.451,6.668-6.955,19.668-11.755,19.668c-0.061,0-0.123-0.002-0.182-0.006
				c-0.492-0.03-1.994-0.121-3.736-5.145c-0.621-1.795-1.339-2.616-1.709-2.91c-0.086,0.21-0.192,0.596-0.234,1.247
				c-0.125,2.038-1.957,7.478-3.653,11.56c-3.209,7.714-3.645,13.215-1.227,15.488c0.99,0.932,2.249,2.717,2.866,4.064
				c0.563,1.224,0.58,2.266,0.051,3.089c-0.315,0.491-0.942,1.057-2.142,1.159l-0.009,0.02l2.345,0.015
				c3.988,0.023,9.268,0.051,14.741,0.051h0.001c6.914,0,12.303-0.045,16.015-0.138l1.88-0.045l-0.002-0.011
				c-0.621-0.047-1.125-0.269-1.484-0.675c-0.381-0.43-1.272-1.438,1.167-6.389c2.025-4.116,1.693-7.149-1.48-13.532
				c-1.233-2.482-2.486-6.094-2.373-7.899c0.023-0.359-0.007-0.689-0.056-0.97c-0.594,0.896-1.336,2.631-1.457,4.578
				c-0.213,3.456-1.833,3.973-2.777,3.973c-0.33,0-0.659-0.07-0.983-0.204c-1.972-0.823-2.232-3.422-1.34-13.247
				c0.885-9.663,0.646-11.165-0.842-13.923C75.57,109.155,75.128,108.481,74.812,108.056L74.812,108.056z"/>
		</g>
		<path fill="#FFFFFF" d="M64.361,216.589c-0.813-1.591-2.865-3.111-3.964-3.845l-5.744,7.203l0.028,1.691
			c1.119,0.426,2.55,1.034,3.014,1.538c0.216,0.231,0.661,0.71,2.061,9.275l1.943,0.545l1.412,12.402
			c0.384,0.376,0.839,0.712,1.08,0.795c0.212-0.223,0.532-0.896,0.725-1.535l-0.09-1.347c-0.286-4.328-0.583-8.799-1.231-13.146
			l-0.037-0.253l1.446-3.961C65.144,223.832,65.285,218.401,64.361,216.589z"/>
		<path fill="#FFFFFF" d="M74.431,203.304c-0.744-1.459-2.469-2.792-3.581-3.514l-5.766,7.13l0.067,1.598
			c0.957,0.361,2.157,0.883,2.61,1.372c0.217,0.231,0.661,0.712,2.061,9.273l1.944,0.547l1.411,12.402
			c0.385,0.378,0.84,0.717,1.081,0.795c0.212-0.221,0.533-0.906,0.723-1.531l-0.087-1.323c-0.287-4.335-0.583-8.816-1.233-13.174
			l-0.039-0.249l1.446-3.963C75.211,210.547,75.354,205.114,74.431,203.304z"/>
		<path fill="#FFFFFF" d="M83.738,190.432c-0.697-1.455-2.259-2.695-3.182-3.339l-5.16,6.823l0.009,1.695
			c0.88,0.308,1.943,0.757,2.364,1.239c0.198,0.228,0.611,0.698,1.896,9.019l1.789,0.532l1.3,12.085
			c0.304,0.315,0.657,0.606,0.878,0.717c0.193-0.255,0.455-0.861,0.617-1.436l-0.081-1.306c-0.264-4.216-0.536-8.574-1.132-12.813
			l-0.034-0.238l1.328-3.85C84.462,197.493,84.591,192.199,83.738,190.432z"/>
		<path fill="#FFFFFF" d="M93.021,178.436c-0.645-1.444-1.944-2.576-2.757-3.182l-5.3,6.834l0.008,1.434
			c0.926,0.444,2.093,1.071,2.493,1.563c0.188,0.23,0.574,0.707,1.795,9.221l1.697,0.545l1.234,12.364
			c0.255,0.289,0.553,0.557,0.757,0.691c0.183-0.294,0.417-0.892,0.563-1.447l-0.079-1.344c-0.251-4.32-0.508-8.786-1.076-13.13
			l-0.029-0.219l1.259-3.936C93.712,185.719,93.837,180.263,93.021,178.436z"/>
		<path fill="#FFFFFF" d="M103.119,167.201c-0.572-1.397-2.187-2.804-3.267-3.6l-5.22,6.438l-0.018,1.685
			c1.038,0.447,2.132,1.002,2.519,1.502c0.184,0.236,0.554,0.719,1.374,8.954l1.693,0.608l0.648,11.956
			c0.258,0.3,0.558,0.583,0.76,0.715c0.195-0.26,0.466-0.821,0.643-1.353l-0.016-1.298c-0.044-4.154-0.087-8.452-0.453-12.645
			l-0.019-0.234l1.47-3.722C103.462,174.186,103.851,168.981,103.119,167.201z"/>
		<path fill="#FFFFFF" d="M111.623,155.924c-0.562-1.372-2.035-2.618-3.033-3.314l-5.139,6.238l0.013,1.704
			c0.807,0.374,1.791,0.904,2.174,1.399c0.181,0.229,0.553,0.715,1.374,8.953l1.693,0.61l0.646,11.953
			c0.26,0.3,0.557,0.581,0.762,0.711c0.195-0.258,0.466-0.819,0.64-1.349l-0.015-1.3c-0.043-4.156-0.087-8.453-0.451-12.647
			l-0.021-0.231l1.473-3.723C111.963,162.904,112.353,157.702,111.623,155.924z"/>
		<path fill="#FFFFFF" d="M119.197,145.493c-0.46-1.385-1.523-2.612-2.248-3.333l-4.781,5.997l-0.005,1.818
			c0.744,0.423,1.759,1.069,2.121,1.636c0.146,0.238,0.453,0.717,1.031,9.022l1.438,0.636l0.375,12.056
			c0.143,0.206,0.306,0.408,0.446,0.556c0.162-0.303,0.349-0.772,0.477-1.209l0.009-1.329c0.025-4.192,0.051-8.526-0.196-12.766
			l-0.013-0.2l1.311-3.718C119.391,152.625,119.806,147.326,119.197,145.493z"/>
		<path fill="#FFFFFF" d="M126.963,134.883c-0.428-1.289-1.246-2.278-1.84-2.867l-4.817,5.958l0.08,1.752
			c0.664,0.34,1.354,0.785,1.664,1.276c0.148,0.231,0.453,0.712,1.031,9.021l1.438,0.636l0.377,12.058
			c0.141,0.207,0.306,0.406,0.446,0.556c0.16-0.302,0.345-0.764,0.477-1.211l0.007-1.295c0.027-4.205,0.053-8.548-0.194-12.798
			l-0.013-0.2l1.311-3.72C127.154,142.013,127.571,136.719,126.963,134.883z"/>
		<path fill="#FFFFFF" d="M133.692,125.657c-0.357-1.164-0.991-2.072-1.484-2.65l-4.418,5.537v1.706
			c0.56,0.37,1.325,0.936,1.623,1.44c0.136,0.229,0.408,0.697,0.936,8.835l1.307,0.623l0.34,11.828
			c0.094,0.143,0.195,0.283,0.289,0.404c0.132-0.296,0.272-0.686,0.37-1.053l0.009-1.304c0.021-4.116,0.047-8.368-0.179-12.526
			l-0.009-0.185l1.188-3.641C133.871,132.676,134.25,127.464,133.692,125.657z"/>
		<g>
			<path fill="#FFFFFF" d="M13.567,218.598l-1.015,2.408l4.822,2.033l1.015-2.412l1.428-0.58l0.582,1.428l-2.877,6.833l-1.429,0.58
				l-0.582-1.428l1.016-2.411l-4.822-2.031l-1.016,2.413l-1.429,0.579l-0.582-1.428l2.877-6.832l1.429-0.582L13.567,218.598z"/>
			<path fill="#FFFFFF" d="M29.455,226.472l-5.828-2.455l-0.592,1.407l5.827,2.454l0.582,1.427l-1.436,3.411l-1.431,0.588
				l-6.833-2.878l-0.579-1.435l1.428-0.582l5.827,2.454l0.59-1.398l-5.827-2.456l-0.582-1.428l1.438-3.416l1.429-0.582l6.832,2.878
				l0.582,1.429L29.455,226.472z"/>
			<path fill="#FFFFFF" d="M33.106,228.01l-0.583-1.43l1.429-0.581l6.833,2.878l0.581,1.428l-1.016,2.412l-1.428,0.581l0.581,1.428
				l-1.015,2.411l-1.429,0.582l-6.832-2.878l-0.583-1.427l1.429-0.583L33.106,228.01z M38.34,231.869l0.593-1.405l-3.818-1.608
				l-0.592,1.407L38.34,231.869z M36.902,235.284l0.592-1.405l-3.817-1.608l-0.592,1.406L36.902,235.284z"/>
			<path fill="#FFFFFF" d="M48.08,238.047l1.758-4.174l1.429-0.582l0.583,1.429l-2.878,6.832l-1.429,0.583l-3.645-7.635
				l-1.759,4.176l-1.428,0.58l-0.583-1.428l2.878-6.832l1.428-0.582L48.08,238.047z"/>
			<path fill="#FFFFFF" d="M60.904,239.718l-6.833-2.879l-0.582-1.428l1.429-0.583l6.832,2.878l0.583,1.43L60.904,239.718z
				 M59.466,243.133l-6.833-2.877l-0.582-1.43l1.429-0.581l6.833,2.879l0.582,1.427L59.466,243.133z M58.026,246.55l-6.832-2.879
				l-0.582-1.427l1.429-0.583l6.832,2.878l0.583,1.428L58.026,246.55z"/>
		</g>
	</g>
</g>
</svg>
