<?xml version="1.0" encoding="utf-8"?>
<!-- Generator: Adobe Illustrator 15.1.0, SVG Export Plug-In . SVG Version: 6.00 Build 0)  -->
<!DOCTYPE svg PUBLIC "-//W3C//DTD SVG 1.1//EN" "http://www.w3.org/Graphics/SVG/1.1/DTD/svg11.dtd">
<svg version="1.1" xmlns="http://www.w3.org/2000/svg" xmlns:xlink="http://www.w3.org/1999/xlink" x="0px" y="0px"
	 width="379.333px" height="302px" viewBox="0 0 379.333 302" enable-background="new 0 0 379.333 302" xml:space="preserve">
<g id="Ground_x2F_Fenceline">
	<g>
		<g>
			<polygon fill="#DBDADA" points="70.778,229.682 49.445,129.833 49.445,34.896 365.112,34.667 365.112,91.482 295.789,90.928 
				295.789,111.587 295.789,229.682 290.362,229.682 272.91,229.682 			"/>
			<g>
				<polyline fill="none" stroke="#000000" stroke-width="0.5" stroke-miterlimit="10" points="71.028,229.682 70.778,229.682 
					70.726,229.438 				"/>
				<polyline fill="none" stroke="#000000" stroke-width="0.5" stroke-miterlimit="10" stroke-dasharray="0.5001,0.5001" points="
					70.621,228.949 49.445,129.833 49.445,35.396 				"/>
				<polyline fill="none" stroke="#000000" stroke-width="0.5" stroke-miterlimit="10" points="49.445,35.146 49.445,34.896 
					49.695,34.896 				"/>
				
					<line fill="none" stroke="#000000" stroke-width="0.5" stroke-miterlimit="10" stroke-dasharray="0.4995,0.4995" x1="50.194" y1="34.896" x2="364.612" y2="34.667"/>
				<polyline fill="none" stroke="#000000" stroke-width="0.5" stroke-miterlimit="10" points="364.862,34.667 365.112,34.667 
					365.112,34.917 				"/>
				
					<line fill="none" stroke="#000000" stroke-width="0.5" stroke-miterlimit="10" stroke-dasharray="0.4984,0.4984" x1="365.112" y1="35.416" x2="365.112" y2="90.983"/>
				<polyline fill="none" stroke="#000000" stroke-width="0.5" stroke-miterlimit="10" points="365.112,91.232 365.112,91.482 
					364.862,91.48 				"/>
				
					<line fill="none" stroke="#000000" stroke-width="0.5" stroke-miterlimit="10" stroke-dasharray="0.5024,0.5024" x1="364.36" y1="91.476" x2="296.29" y2="90.932"/>
				<polyline fill="none" stroke="#000000" stroke-width="0.5" stroke-miterlimit="10" points="296.039,90.93 295.789,90.928 
					295.789,91.178 				"/>
				<polyline fill="none" stroke="#000000" stroke-width="0.5" stroke-miterlimit="10" stroke-dasharray="0.4991,0.4991" points="
					295.789,91.677 295.789,111.587 295.789,229.183 				"/>
				<polyline fill="none" stroke="#000000" stroke-width="0.5" stroke-miterlimit="10" points="295.789,229.432 295.789,229.682 
					295.539,229.682 				"/>
				<polyline fill="none" stroke="#000000" stroke-width="0.5" stroke-miterlimit="10" stroke-dasharray="0.5,0.5" points="
					295.039,229.682 290.362,229.682 272.91,229.682 71.278,229.682 				"/>
			</g>
		</g>
	</g>
	<path fill="none" stroke="#EF4623" stroke-width="3" stroke-miterlimit="10" d="M365.112,91.482"/>
	<polyline fill="none" stroke="#000000" stroke-width="0.5" stroke-miterlimit="10" stroke-dasharray="0.5" points="272.91,229.682 
		295.789,229.682 295.789,284 277.258,284 22.111,284 22.111,11.136 	"/>
	<polyline fill="none" stroke="#000000" stroke-width="0.5" stroke-miterlimit="10" stroke-dasharray="0.5" points="49.445,11.248 
		49.945,132.174 70.778,229.682 192.45,229.682 	"/>
	<path fill="#767769" d="M277.258,260"/>
	<g>
		<ellipse fill="#767769" stroke="#000000" stroke-miterlimit="10" cx="295.258" cy="272.667" rx="0" ry="11.333"/>
		<ellipse fill="#6C6D60" stroke="#000000" stroke-miterlimit="10" cx="276.688" cy="272.667" rx="0" ry="11.333"/>
		<ellipse fill="#626357" stroke="#000000" stroke-miterlimit="10" cx="258.118" cy="272.667" rx="0" ry="11.333"/>
		<ellipse fill="#58594F" stroke="#000000" stroke-miterlimit="10" cx="239.548" cy="272.667" rx="0" ry="11.333"/>
		<ellipse fill="#4F4F46" stroke="#000000" stroke-miterlimit="10" cx="220.978" cy="272.667" rx="0" ry="11.333"/>
		<ellipse fill="#45453D" stroke="#000000" stroke-miterlimit="10" cx="202.408" cy="272.667" rx="0" ry="11.333"/>
		<ellipse fill="#3B3B34" stroke="#000000" stroke-miterlimit="10" cx="183.837" cy="272.667" rx="0" ry="11.333"/>
		<ellipse fill="#31322C" stroke="#000000" stroke-miterlimit="10" cx="165.268" cy="272.667" rx="0" ry="11.333"/>
		<ellipse fill="#272823" stroke="#000000" stroke-miterlimit="10" cx="146.698" cy="272.667" rx="0" ry="11.333"/>
		<ellipse fill="#1D1E1A" stroke="#000000" stroke-miterlimit="10" cx="128.127" cy="272.667" rx="0" ry="11.333"/>
		<ellipse fill="#141411" stroke="#000000" stroke-miterlimit="10" cx="109.558" cy="272.667" rx="0" ry="11.333"/>
		<ellipse fill="#0A0A09" stroke="#000000" stroke-miterlimit="10" cx="90.987" cy="272.667" rx="0" ry="11.333"/>
		<ellipse stroke="#000000" stroke-miterlimit="10" cx="72.417" cy="272.667" rx="0" ry="11.333"/>
	</g>
</g>
<g id="Buildings">
	<polygon fill="#C6CDC7" points="294.789,72.376 143.568,72.376 143.568,110.587 164.111,110.587 164.111,152.333 219.178,152.333 
		219.178,110.587 294.789,110.587 	"/>
	<polyline fill="#C6CDC7" points="208.061,229.682 272.91,229.682 272.91,191.088 229.862,191.088 226.953,191.088 140.026,191.088 
		140.026,229.682 192.45,229.682 	"/>
	<path d="M168.191,213.55c-0.017,0-0.027-0.012-0.042-0.018c-0.044,0.017-0.094,0.017-0.13-0.019l-2.308-2.308
		c-0.049-0.049-0.049-0.128,0-0.177c0.024-0.024,0.056-0.037,0.088-0.037s0.064,0.012,0.088,0.037l2.281,2.281
		c0.008-0.001,0.014-0.009,0.023-0.009c0.354,0,0.747-0.896,0.747-2.183c0-0.069,0.056-0.125,0.125-0.125s0.125,0.056,0.125,0.125
		C169.188,212.296,168.838,213.55,168.191,213.55z"/>
	<path d="M184.878,213.55c-0.017,0-0.027-0.012-0.042-0.018c-0.045,0.017-0.094,0.017-0.131-0.019l-2.308-2.308
		c-0.049-0.049-0.049-0.128,0-0.177c0.024-0.024,0.056-0.037,0.089-0.037c0.031,0,0.063,0.012,0.088,0.037l2.281,2.281
		c0.008-0.001,0.014-0.009,0.022-0.009c0.354,0,0.747-0.896,0.747-2.183c0-0.069,0.057-0.125,0.125-0.125s0.125,0.056,0.125,0.125
		C185.875,212.296,185.526,213.55,184.878,213.55z"/>
	<path d="M163.573,202.314c-0.017,0-0.027,0.012-0.042,0.018c-0.044-0.017-0.094-0.017-0.13,0.019l-2.308,2.308
		c-0.049,0.049-0.049,0.128,0,0.177c0.024,0.024,0.056,0.037,0.088,0.037s0.064-0.012,0.088-0.037l2.281-2.281
		c0.008,0.001,0.014,0.009,0.023,0.009c0.354,0,0.747,0.896,0.747,2.183c0,0.069,0.056,0.125,0.125,0.125s0.125-0.056,0.125-0.125
		C164.57,203.568,164.22,202.314,163.573,202.314z"/>
	<path d="M193.304,202.314c-0.017,0-0.027,0.012-0.042,0.018c-0.045-0.017-0.094-0.017-0.131,0.019l-2.308,2.308
		c-0.049,0.049-0.049,0.128,0,0.177c0.024,0.024,0.056,0.037,0.089,0.037c0.031,0,0.063-0.012,0.088-0.037l2.281-2.281
		c0.008,0.001,0.014,0.009,0.022,0.009c0.354,0,0.747,0.896,0.747,2.183c0,0.069,0.057,0.125,0.125,0.125s0.125-0.056,0.125-0.125
		C194.301,203.568,193.952,202.314,193.304,202.314z"/>
	<path d="M259.098,213.754c-0.017,0-0.027-0.012-0.042-0.018c-0.045,0.017-0.094,0.017-0.131-0.019l-2.308-2.308
		c-0.049-0.049-0.049-0.128,0-0.177c0.024-0.024,0.056-0.037,0.089-0.037c0.031,0,0.063,0.012,0.088,0.037l2.281,2.281
		c0.008-0.001,0.014-0.009,0.022-0.009c0.354,0,0.747-0.896,0.747-2.183c0-0.069,0.057-0.125,0.125-0.125s0.125,0.056,0.125,0.125
		C260.095,212.501,259.746,213.754,259.098,213.754z"/>
	<path d="M211.531,217.572c-0.017,0-0.027-0.012-0.042-0.018c-0.045,0.017-0.094,0.017-0.131-0.019l-2.308-2.308
		c-0.049-0.049-0.049-0.128,0-0.177c0.024-0.024,0.056-0.037,0.089-0.037c0.031,0,0.063,0.012,0.088,0.037l2.281,2.281
		c0.008-0.001,0.014-0.009,0.022-0.009c0.354,0,0.747-0.896,0.747-2.183c0-0.069,0.057-0.125,0.125-0.125s0.125,0.056,0.125,0.125
		C212.528,216.318,212.178,217.572,211.531,217.572z"/>
	<path d="M229.291,193.646c-0.017,0-0.027-0.012-0.042-0.018c-0.045,0.017-0.094,0.017-0.131-0.019l-2.308-2.308
		c-0.049-0.049-0.049-0.128,0-0.177c0.024-0.024,0.056-0.037,0.089-0.037c0.031,0,0.063,0.012,0.088,0.037l2.281,2.281
		c0.008-0.001,0.014-0.009,0.022-0.009c0.354,0,0.747-0.896,0.747-2.183c0-0.069,0.057-0.125,0.125-0.125s0.125,0.056,0.125,0.125
		C230.288,192.393,229.938,193.646,229.291,193.646z"/>
	<path d="M262.868,207.451c0,0.017-0.012,0.027-0.018,0.042c0.018,0.045,0.018,0.094-0.019,0.131l-2.309,2.308
		c-0.049,0.049-0.128,0.049-0.177,0c-0.024-0.024-0.036-0.056-0.036-0.089c0-0.031,0.012-0.063,0.036-0.088l2.281-2.281
		c-0.002-0.008-0.01-0.014-0.01-0.022c0-0.354-0.896-0.747-2.183-0.747c-0.069,0-0.125-0.057-0.125-0.125s0.056-0.125,0.125-0.125
		C261.615,206.454,262.868,206.803,262.868,207.451z"/>
	<path d="M149.773,193.001c0,0.017,0.012,0.027,0.018,0.042c-0.018,0.045-0.018,0.094,0.019,0.131l2.309,2.308
		c0.049,0.049,0.128,0.049,0.177,0c0.024-0.024,0.036-0.056,0.036-0.089c0-0.031-0.012-0.063-0.036-0.088l-2.281-2.281
		c0.002-0.008,0.01-0.014,0.01-0.022c0-0.354,0.896-0.747,2.183-0.747c0.069,0,0.125-0.057,0.125-0.125s-0.056-0.125-0.125-0.125
		C151.026,192.004,149.773,192.354,149.773,193.001z"/>
	<path d="M149.773,227.594c0-0.017,0.012-0.027,0.018-0.042c-0.018-0.045-0.018-0.094,0.019-0.131l2.309-2.308
		c0.049-0.049,0.128-0.049,0.177,0c0.024,0.024,0.036,0.056,0.036,0.089c0,0.031-0.012,0.063-0.036,0.088l-2.281,2.281
		c0.002,0.008,0.01,0.014,0.01,0.022c0,0.354,0.896,0.747,2.183,0.747c0.069,0,0.125,0.057,0.125,0.125s-0.056,0.125-0.125,0.125
		C151.026,228.591,149.773,228.242,149.773,227.594z"/>
	<path d="M150.78,222.305c-0.017,0-0.027,0.012-0.042,0.018c-0.045-0.018-0.094-0.018-0.131,0.019l-2.308,2.309
		c-0.049,0.049-0.049,0.128,0,0.177c0.024,0.024,0.056,0.036,0.089,0.036c0.031,0,0.063-0.012,0.088-0.036l2.281-2.281
		c0.008,0.002,0.014,0.01,0.022,0.01c0.354,0,0.747,0.896,0.747,2.183c0,0.069,0.057,0.125,0.125,0.125s0.125-0.056,0.125-0.125
		C151.777,223.558,151.428,222.305,150.78,222.305z"/>
	<path fill="none" stroke="#EF4623" stroke-width="3" stroke-miterlimit="10" d="M295.789,111.587"/>
	<rect x="92.197" y="114.592" fill="#C6CDC7" width="30.657" height="71.562"/>
	<polyline fill="none" stroke="#000000" stroke-miterlimit="10" points="121.854,132.648 121.854,131.96 93.197,131.96 	"/>
	<line fill="none" stroke="#000000" stroke-miterlimit="10" x1="93.197" y1="152.333" x2="121.854" y2="152.333"/>
	<line fill="none" stroke="#000000" stroke-miterlimit="10" x1="164.227" y1="71.376" x2="164.111" y2="111.167"/>
	<line fill="none" stroke="#000000" stroke-miterlimit="10" x1="186.727" y1="71.376" x2="186.612" y2="111.167"/>
	<line fill="#C6CDC7" x1="272.91" y1="72.583" x2="272.91" y2="110.083"/>
	<line fill="none" stroke="#000000" stroke-miterlimit="10" x1="258.344" y1="73.333" x2="258.344" y2="110.083"/>
	<line fill="none" stroke="#000000" stroke-miterlimit="10" x1="210.232" y1="72.583" x2="210.232" y2="111.167"/>
	<g>
		<path fill="none" stroke="#000000" stroke-width="0.5" stroke-miterlimit="10" stroke-dasharray="0.5" d="M208.015,235.479"/>
	</g>
	<g>
		<path fill="none" stroke="#000000" stroke-width="0.5" stroke-miterlimit="10" stroke-dasharray="0.5" d="M192.404,235.479"/>
	</g>
	<polygon points="229.989,190.093 229.993,192.088 255.859,192.088 255.859,205.876 256.859,205.876 256.859,205.847 
		259.831,205.847 259.831,206.692 260.831,206.692 260.831,204.847 256.859,204.847 256.859,192.088 271.91,192.088 271.91,210.88 
		261.053,210.88 260.831,210.88 260.831,209.767 259.831,209.767 259.831,210.88 259.831,211.88 261.053,211.88 271.91,211.88 
		271.91,228.682 256.844,228.682 256.844,212.223 256.844,212.165 256.844,210.663 256.844,209.821 255.844,209.821 
		255.844,210.663 255.844,212.165 255.844,212.223 255.844,228.682 224.281,228.682 224.281,214.732 223.781,214.732 
		223.281,214.732 212.28,214.732 212.28,215.732 223.281,215.732 223.281,228.682 209.061,228.682 209.061,224.179 209.061,223.179 
		209.061,214.732 208.061,214.732 208.061,223.179 203.852,223.179 203.852,225.179 207.061,225.179 207.061,229.682 
		208.061,230.682 273.91,230.682 273.91,190.088 	"/>
	<rect x="169.063" y="210.492" width="13.395" height="1"/>
	<rect x="141.026" y="224.234" width="7.355" height="1"/>
	<path d="M226.774,192.088v-2h-87.748v40.594h53.423l1-1v-4.503h3.152v-2H192.7h-1.25h-3.211v-12.677h-0.25h-0.25v-0.01h-2.018v1
		h1.518v17.19h-31.024v-17.19h9.584v-1h-9.584l-0.01,0.01h-0.99v18.18h-2.557l-0.013-0.184h-1l0.013,0.184h-10.632v-20.19h10.632
		l-0.013,16.742h1.013v-16.742v-0.5l-0.013-12.614h-1l0.013,12.114h-10.632v-15.404h14.188v13.125h0.5v0.034h5.466v-1h-4.966
		v-12.159h9.131v12.159h-0.901v1h18.013v-1h-16.112v-12.159h19.375v12.159v0.966v0.034h2.018h0.5h2.672v-1h-2.672h-0.5h-1.018
		v-12.159h7.415v12.159h-0.007v1h1.007v-0.031l9.616,0.031l0.015-0.021c0.068,0.01,0.138,0.021,0.209,0.021
		c0.824,0,1.492-0.668,1.492-1.492s-0.668-1.492-1.492-1.492c-0.581,0-1.079,0.335-1.325,0.82h-8.515v-10.995h14.556v13.159h1.08
		v-8.888l0.103-0.049l0.428-0.077l-0.33,0.029l0.289-0.138l-0.329,0.142l-0.16,0.014v-4.192H226.774z M188.239,224.179h3.211v4.503
		h-3.211V224.179z M203.651,203.333c0.094,0,0.181-0.053,0.223-0.137c0.214-0.422,0.637-0.684,1.103-0.684
		c0.685,0,1.242,0.557,1.242,1.242s-0.558,1.242-1.242,1.242c-0.052,0-0.103-0.008-0.174-0.019
		c-0.009-0.001-0.018-0.002-0.026-0.002c-0.031,0-0.063,0.008-0.094,0.021l-9.546-0.031v-1.633H203.651z"/>
	<path d="M163.573,202.314c-0.017,0-0.027,0.012-0.042,0.018c-0.044-0.017-0.094-0.017-0.13,0.019l-2.308,2.308
		c-0.049,0.049-0.049,0.128,0,0.177c0.024,0.024,0.056,0.037,0.088,0.037s0.064-0.012,0.088-0.037l2.281-2.281
		c0.008,0.001,0.014,0.009,0.023,0.009c0.354,0,0.747,0.896,0.747,2.183c0,0.069,0.056,0.125,0.125,0.125s0.125-0.056,0.125-0.125
		C164.57,203.568,164.22,202.314,163.573,202.314z"/>
	<path d="M161.669,108.029c-0.017,0-0.027,0.012-0.042,0.018c-0.044-0.017-0.094-0.017-0.13,0.019l-2.308,2.308
		c-0.049,0.049-0.049,0.128,0,0.177c0.024,0.024,0.056,0.037,0.088,0.037s0.064-0.012,0.088-0.037l2.281-2.281
		c0.008,0.001,0.014,0.009,0.023,0.009c0.354,0,0.747,0.896,0.747,2.183c0,0.069,0.056,0.125,0.125,0.125s0.125-0.056,0.125-0.125
		C162.667,109.283,162.317,108.029,161.669,108.029z"/>
	<path d="M167.914,108.029c-0.017,0-0.027,0.012-0.042,0.018c-0.044-0.017-0.094-0.017-0.13,0.019l-2.308,2.308
		c-0.049,0.049-0.049,0.128,0,0.177c0.024,0.024,0.056,0.037,0.088,0.037s0.064-0.012,0.088-0.037l2.281-2.281
		c0.008,0.001,0.014,0.009,0.023,0.009c0.354,0,0.747,0.896,0.747,2.183c0,0.069,0.056,0.125,0.125,0.125s0.125-0.056,0.125-0.125
		C168.911,109.283,168.561,108.029,167.914,108.029z"/>
	<path d="M190.427,108.029c-0.017,0-0.027,0.012-0.042,0.018c-0.045-0.017-0.094-0.017-0.131,0.019l-2.308,2.308
		c-0.049,0.049-0.049,0.128,0,0.177c0.024,0.024,0.056,0.037,0.089,0.037c0.031,0,0.063-0.012,0.088-0.037l2.281-2.281
		c0.008,0.001,0.014,0.009,0.022,0.009c0.354,0,0.747,0.896,0.747,2.183c0,0.069,0.057,0.125,0.125,0.125s0.125-0.056,0.125-0.125
		C191.424,109.283,191.075,108.029,190.427,108.029z"/>
	<path d="M184.842,202.307c-0.017,0-0.027,0.012-0.042,0.018c-0.044-0.017-0.095-0.017-0.13,0.019l-2.309,2.308
		c-0.049,0.049-0.049,0.128,0,0.177c0.024,0.024,0.057,0.037,0.088,0.037c0.033,0,0.064-0.012,0.089-0.037l2.28-2.281
		c0.009,0.001,0.015,0.009,0.023,0.009c0.354,0,0.747,0.896,0.747,2.183c0,0.069,0.056,0.125,0.125,0.125s0.125-0.056,0.125-0.125
		C185.839,203.56,185.49,202.307,184.842,202.307z"/>
	<path d="M199.19,221.676c-0.018,0-0.028,0.012-0.044,0.018c-0.046-0.017-0.099-0.017-0.136,0.019l-2.394,2.308
		c-0.05,0.049-0.05,0.128,0,0.177c0.025,0.024,0.059,0.037,0.092,0.037c0.034,0,0.066-0.012,0.092-0.037l2.365-2.281
		c0.009,0.001,0.015,0.009,0.024,0.009c0.366,0,0.774,0.896,0.774,2.183c0,0.069,0.058,0.125,0.129,0.125
		c0.072,0,0.13-0.056,0.13-0.125C200.223,222.929,199.86,221.676,199.19,221.676z"/>
	<path d="M201.26,221.676c0.018,0,0.028,0.012,0.044,0.018c0.045-0.017,0.098-0.017,0.134,0.019l2.377,2.308
		c0.05,0.049,0.05,0.128,0,0.177c-0.025,0.024-0.059,0.037-0.091,0.037c-0.034,0-0.066-0.012-0.091-0.037l-2.349-2.281
		c-0.009,0.001-0.015,0.009-0.024,0.009c-0.363,0-0.769,0.896-0.769,2.183c0,0.069-0.058,0.125-0.129,0.125
		s-0.129-0.056-0.129-0.125C200.234,222.929,200.594,221.676,201.26,221.676z"/>
	<rect x="121.854" y="124.246" width="2" height="8.402"/>
	<g>
		<rect x="121.854" y="135.939" width="2" height="18.375"/>
		<polygon points="121.854,157.605 121.854,185.153 93.197,185.153 93.197,115.592 121.854,115.592 121.854,117.667 
			123.854,117.667 123.854,115.592 123.854,113.592 121.854,113.592 93.197,113.592 91.197,113.592 91.197,115.592 91.197,185.153 
			91.197,187.153 93.197,187.153 121.854,187.153 123.854,187.153 123.854,185.153 123.854,157.605 		"/>
	</g>
	<rect x="162.667" y="109.587" width="2.73" height="2"/>
	<g>
		<polygon points="142.568,71.376 142.568,111.587 159.188,111.587 159.188,109.587 144.568,109.587 144.568,73.376 293.789,73.376 
			293.789,109.587 191.407,109.587 191.407,111.587 295.789,111.587 295.789,71.376 		"/>
		<rect x="168.875" y="109.587" width="19.052" height="2"/>
	</g>
	<path d="M120.316,155.053c0,0.017,0.012,0.027,0.018,0.042c-0.018,0.045-0.018,0.094,0.019,0.131l2.309,2.308
		c0.049,0.049,0.128,0.049,0.177,0c0.024-0.024,0.036-0.056,0.036-0.089c0-0.031-0.012-0.063-0.036-0.088l-2.281-2.281
		c0.002-0.008,0.01-0.014,0.01-0.022c0-0.354,0.896-0.747,2.183-0.747c0.069,0,0.125-0.057,0.125-0.125s-0.056-0.125-0.125-0.125
		C121.569,154.056,120.316,154.406,120.316,155.053z"/>
	<path d="M120.316,133.422c0,0.017,0.012,0.027,0.018,0.042c-0.018,0.045-0.018,0.094,0.019,0.131l2.309,2.308
		c0.049,0.049,0.128,0.049,0.177,0c0.024-0.024,0.036-0.056,0.036-0.089c0-0.031-0.012-0.063-0.036-0.088l-2.281-2.281
		c0.002-0.008,0.01-0.014,0.01-0.022c0-0.354,0.896-0.747,2.183-0.747c0.069,0,0.125-0.057,0.125-0.125s-0.056-0.125-0.125-0.125
		C121.569,132.425,120.316,132.775,120.316,133.422z"/>
	<path d="M120.316,121.73c0,0.017,0.012,0.027,0.018,0.042c-0.018,0.045-0.018,0.094,0.019,0.131l2.309,2.308
		c0.049,0.049,0.128,0.049,0.177,0c0.024-0.024,0.036-0.056,0.036-0.089c0-0.031-0.012-0.063-0.036-0.088l-2.281-2.281
		c0.002-0.008,0.01-0.014,0.01-0.022c0-0.354,0.896-0.747,2.183-0.747c0.069,0,0.125-0.057,0.125-0.125s-0.056-0.125-0.125-0.125
		C121.569,120.733,120.316,121.083,120.316,121.73z"/>
	<path d="M120.316,119.983c0-0.017,0.012-0.027,0.018-0.042c-0.018-0.045-0.018-0.094,0.019-0.131l2.309-2.308
		c0.049-0.049,0.128-0.049,0.177,0c0.024,0.024,0.036,0.056,0.036,0.089c0,0.031-0.012,0.063-0.036,0.088l-2.281,2.281
		c0.002,0.008,0.01,0.014,0.01,0.022c0,0.354,0.896,0.747,2.183,0.747c0.069,0,0.125,0.057,0.125,0.125s-0.056,0.125-0.125,0.125
		C121.569,120.98,120.316,120.63,120.316,119.983z"/>
	<polygon points="218.678,111.087 218.678,112.087 218.678,151.833 164.611,151.833 164.611,112.087 164.646,111.087 
		163.611,111.087 163.611,152.833 219.678,152.833 219.678,111.087 	"/>
</g>
</svg>
